<?xml version="1.0" encoding="UTF-8" standalone="no"?><!-- Generator: Gravit.io -->
<svg xmlns="http://www.w3.org/2000/svg" xmlns:xlink="http://www.w3.org/1999/xlink" style="isolation:isolate" viewBox="0 0 148.488 148.136" width="170.488pt" height="148.136pt">
    <defs>
        <clipPath id="_clipPath_0tCpY4x2w3uQ7PmcVLtsyRrFCWNZ9YXn">
            <rect width="425.488" height="148.136"/>
        </clipPath>
    </defs>
    <g clip-path="url(#_clipPath_0tCpY4x2w3uQ7PmcVLtsyRrFCWNZ9YXn)">
        <clipPath id="_clipPath_m7Uu0Nhgnr5SS8lXYbhZabxtktBDo1z9">
            <path d=" M 0 0 L 0 148.136 L 425.488 148.136 L 425.488 0 L 0 0 Z " fill="rgb(255,255,255)"/>
        </clipPath>
        <g clip-path="url(#_clipPath_m7Uu0Nhgnr5SS8lXYbhZabxtktBDo1z9)">
            <path d=" M 82.522 0 C 113.722 0 140.414 19.293 151.325 46.599 L 138.65 50.637 C 129.475 28.685 107.801 13.258 82.522 13.258 C 48.937 13.258 21.712 40.483 21.712 74.068 C 21.712 74.484 21.719 74.899 21.728 75.314 L 9.325 85.457 C 8.751 81.745 8.454 77.94 8.454 74.068 C 8.454 33.162 41.615 0 82.522 0 Z  M 156.056 65.179 C 156.405 68.094 156.589 71.059 156.589 74.068 C 156.589 114.975 123.428 148.136 82.522 148.136 C 52.733 148.136 27.057 130.549 15.297 105.194 L 27.148 99.231 C 36.718 120.259 57.912 134.878 82.522 134.878 C 116.106 134.878 143.331 107.652 143.331 74.068 C 143.331 73.444 143.319 72.824 143.3 72.205 L 156.056 65.179 Z " fill-rule="evenodd" fill="rgb(29,44,94)"/>
            <path d=" M 0 103.695 L 72.451 44.44 L 69.445 69.075 L 111.725 45.116 L 109.581 68.518 L 165.042 50.851 L 89.82 92.283 L 95.437 68.708 L 51.981 94.176 L 54.854 76.094 L 0 103.695 Z " fill-rule="evenodd" fill="rgb(29,44,94)"/>
            <!--            <path d=" M 203.591 56.241 C 204.338 56.241 204.983 56.292 205.526 56.394 C 206.07 56.496 206.545 56.691 206.953 56.98 C 207.36 57.269 207.725 57.659 208.048 58.151 C 208.37 58.644 208.701 59.297 209.041 60.112 L 219.635 84.561 C 219.771 84.866 220.009 85.019 220.349 85.019 L 220.96 85.019 C 221.299 85.019 221.536 84.866 221.673 84.561 L 232.267 60.112 C 232.606 59.297 232.938 58.644 233.26 58.151 C 233.582 57.659 233.947 57.269 234.355 56.98 C 234.763 56.691 235.229 56.496 235.756 56.394 C 236.282 56.292 236.919 56.241 237.666 56.241 L 243.115 56.241 C 244.882 56.241 246.07 56.64 246.681 57.438 C 247.292 58.236 247.598 59.602 247.598 61.538 L 247.598 90.774 C 247.598 91.522 247.207 91.895 246.427 91.895 L 241.231 91.895 C 240.484 91.895 240.11 91.522 240.11 90.774 L 240.11 64.187 C 240.11 63.847 239.975 63.677 239.703 63.677 L 239.245 63.677 C 238.905 63.677 238.685 63.814 238.582 64.085 L 228.294 86.903 C 227.887 87.82 227.471 88.593 227.046 89.221 C 226.622 89.85 226.163 90.367 225.671 90.774 C 225.179 91.182 224.618 91.471 223.99 91.641 C 223.362 91.811 222.623 91.895 221.774 91.895 L 219.33 91.895 C 218.48 91.895 217.742 91.811 217.114 91.641 C 216.486 91.471 215.926 91.182 215.434 90.774 C 214.941 90.367 214.482 89.85 214.058 89.221 C 213.633 88.593 213.217 87.82 212.81 86.903 L 202.521 64.085 C 202.419 63.814 202.199 63.677 201.859 63.677 L 201.401 63.677 C 201.129 63.677 200.993 63.847 200.993 64.187 L 200.993 90.774 C 200.993 91.522 200.62 91.895 199.873 91.895 L 194.678 91.895 C 193.896 91.895 193.506 91.522 193.506 90.774 L 193.506 61.538 C 193.506 59.602 193.812 58.236 194.423 57.438 C 195.034 56.64 196.239 56.241 198.039 56.241 L 203.591 56.241 Z  M 290.586 56.241 C 291.367 56.241 291.758 56.615 291.758 57.362 L 291.758 62.2 C 291.758 62.948 291.367 63.321 290.586 63.321 L 268.328 63.321 C 267.004 63.321 265.909 63.432 265.043 63.652 C 264.177 63.873 263.48 64.247 262.955 64.772 C 262.429 65.299 262.063 66.012 261.859 66.912 C 261.656 67.812 261.554 68.924 261.554 70.248 L 261.554 70.757 L 290.332 70.757 C 291.079 70.757 291.452 71.131 291.452 71.878 L 291.452 75.901 C 291.452 76.648 291.079 77.023 290.332 77.023 L 261.554 77.023 L 261.554 77.888 C 261.554 79.213 261.656 80.324 261.859 81.225 C 262.063 82.124 262.429 82.837 262.955 83.363 C 263.48 83.89 264.177 84.264 265.043 84.484 C 265.909 84.705 267.004 84.815 268.328 84.815 L 290.586 84.815 C 291.367 84.815 291.758 85.189 291.758 85.936 L 291.758 90.774 C 291.758 91.522 291.367 91.895 290.586 91.895 L 268.176 91.895 C 265.595 91.895 263.404 91.657 261.604 91.182 C 259.806 90.706 258.337 89.934 257.199 88.864 C 256.062 87.795 255.229 86.402 254.703 84.688 C 254.177 82.973 253.914 80.894 253.914 78.448 L 253.914 69.688 C 253.914 67.243 254.177 65.172 254.703 63.474 C 255.229 61.776 256.062 60.392 257.199 59.323 C 258.337 58.253 259.806 57.472 261.604 56.98 C 263.404 56.487 265.595 56.241 268.176 56.241 L 290.586 56.241 Z  M 336.376 56.241 C 337.157 56.241 337.547 56.615 337.547 57.362 L 337.547 62.353 C 337.547 63.134 337.157 63.524 336.376 63.524 L 320.383 63.524 L 320.383 90.774 C 320.383 91.522 320.009 91.895 319.262 91.895 L 313.71 91.895 C 312.963 91.895 312.59 91.522 312.59 90.774 L 312.59 63.524 L 296.597 63.524 C 295.815 63.524 295.425 63.134 295.425 62.353 L 295.425 57.362 C 295.425 56.615 295.815 56.241 296.597 56.241 L 336.376 56.241 Z  M 377.327 56.241 C 378.107 56.241 378.498 56.615 378.498 57.362 L 378.498 62.2 C 378.498 62.948 378.107 63.321 377.327 63.321 L 355.068 63.321 C 353.744 63.321 352.649 63.432 351.783 63.652 C 350.918 63.873 350.222 64.247 349.695 64.772 C 349.169 65.299 348.804 66.012 348.6 66.912 C 348.396 67.812 348.294 68.924 348.294 70.248 L 348.294 70.757 L 377.072 70.757 C 377.819 70.757 378.192 71.131 378.192 71.878 L 378.192 75.901 C 378.192 76.648 377.819 77.023 377.072 77.023 L 348.294 77.023 L 348.294 77.888 C 348.294 79.213 348.396 80.324 348.6 81.225 C 348.804 82.124 349.169 82.837 349.695 83.363 C 350.222 83.89 350.918 84.264 351.783 84.484 C 352.649 84.705 353.744 84.815 355.068 84.815 L 377.327 84.815 C 378.107 84.815 378.498 85.189 378.498 85.936 L 378.498 90.774 C 378.498 91.522 378.107 91.895 377.327 91.895 L 354.916 91.895 C 352.335 91.895 350.146 91.657 348.346 91.182 C 346.546 90.706 345.077 89.934 343.939 88.864 C 342.802 87.795 341.971 86.402 341.443 84.688 C 340.917 82.973 340.654 80.894 340.654 78.448 L 340.654 69.688 C 340.654 67.243 340.917 65.172 341.443 63.474 C 341.971 61.776 342.802 60.392 343.939 59.323 C 345.077 58.253 346.546 57.472 348.346 56.98 C 350.146 56.487 352.335 56.241 354.916 56.241 L 377.327 56.241 Z  M 413.235 56.241 C 417.14 56.241 419.941 57.124 421.639 58.89 C 423.337 60.655 424.186 63.27 424.186 66.733 L 424.186 69.637 C 424.186 72.557 423.592 74.866 422.403 76.564 C 421.215 78.262 419.279 79.349 416.597 79.823 L 425.307 90.622 C 425.477 90.791 425.527 91.046 425.459 91.386 C 425.392 91.726 425.119 91.895 424.645 91.895 L 418.073 91.895 C 417.632 91.895 417.327 91.844 417.157 91.742 C 416.987 91.641 416.817 91.471 416.647 91.232 L 408.6 80.639 L 392.148 80.639 L 392.148 90.774 C 392.148 91.522 391.775 91.895 391.028 91.895 L 385.527 91.895 C 384.746 91.895 384.355 91.522 384.355 90.774 L 384.355 57.769 C 384.355 56.751 384.865 56.241 385.884 56.241 L 413.235 56.241 Z  M 392.148 74.425 L 411.656 74.425 C 413.388 74.425 414.61 74.051 415.323 73.304 C 416.036 72.557 416.393 71.419 416.393 69.892 L 416.393 67.752 C 416.393 66.224 416.036 65.086 415.323 64.34 C 414.61 63.593 413.388 63.219 411.656 63.219 L 392.811 63.219 C 392.369 63.219 392.148 63.423 392.148 63.83 L 392.148 74.425 Z "-->
            <!--                  fill-rule="evenodd" fill="rgb(29,44,94)"/>-->
        </g>
    </g>
</svg>
